<svg width="19" height="19" viewBox="0 0 19 19" fill="none" xmlns="http://www.w3.org/2000/svg">
<path d="M6.82639 10.8148H11.3237" stroke="#727272" stroke-width="1.34919" stroke-linecap="round" stroke-linejoin="round"/>
<path d="M6.82639 8.56616H11.3237" stroke="#727272" stroke-width="1.34919" stroke-linecap="round" stroke-linejoin="round"/>
<path d="M11.3238 2.94453H14.1345C14.2836 2.94453 14.4266 3.00376 14.532 3.10919C14.6374 3.21461 14.6967 3.3576 14.6967 3.5067V15.3121C14.6967 15.4612 14.6374 15.6042 14.532 15.7096C14.4266 15.815 14.2836 15.8743 14.1345 15.8743H4.01558C3.86648 15.8743 3.72349 15.815 3.61807 15.7096C3.51264 15.6042 3.45341 15.4612 3.45341 15.3121V3.5067C3.45341 3.3576 3.51264 3.21461 3.61807 3.10919C3.72349 3.00376 3.86648 2.94453 4.01558 2.94453H6.82623" stroke="#727272" stroke-width="1.34919" stroke-linecap="round" stroke-linejoin="round"/>
<path d="M6.26423 5.19319V4.63103C6.26423 3.88556 6.56036 3.17062 7.08749 2.64349C7.61462 2.11636 8.32956 1.82022 9.07504 1.82022C9.82051 1.82022 10.5354 2.11636 11.0626 2.64349C11.5897 3.17062 11.8858 3.88556 11.8858 4.63103V5.19319H6.26423Z" stroke="#727272" stroke-width="1.34919" stroke-linecap="round" stroke-linejoin="round"/>
</svg>
