<svg width="30" height="36" viewBox="0 0 30 36" fill="none" xmlns="http://www.w3.org/2000/svg">
<g filter="url(#filter0_d_0_980)">
<path d="M8.24401 0.492004H17.3244C17.7793 0.492102 18.2156 0.672909 18.5373 0.994658L24.8968 7.35417C25.2185 7.67582 25.3993 8.1121 25.3994 8.56705V24.5096C25.3994 25.4196 25.0379 26.2923 24.3945 26.9357C23.751 27.5792 22.8783 27.9407 21.9683 27.9407H8.24401C7.33403 27.9407 6.46132 27.5792 5.81787 26.9357C5.17442 26.2923 4.81293 25.4196 4.81293 24.5096V3.92309C4.81293 3.01311 5.17442 2.1404 5.81787 1.49695C6.46132 0.853492 7.33403 0.492004 8.24401 0.492004V0.492004ZM17.6795 3.06532V6.4964C17.6795 6.95139 17.8602 7.38774 18.182 7.70947C18.5037 8.03119 18.94 8.21194 19.395 8.21194H22.8261L17.6795 3.06532Z" fill="#1294F2"/>
<path d="M10.837 18.4291C10.6826 18.4291 10.5557 18.3844 10.4562 18.2952C10.3601 18.2026 10.3121 18.0894 10.3121 17.9556C10.3121 17.8183 10.3601 17.7034 10.4562 17.6107C10.5557 17.5181 10.6826 17.4718 10.837 17.4718C10.988 17.4718 11.1115 17.5181 11.2076 17.6107C11.3071 17.7034 11.3568 17.8183 11.3568 17.9556C11.3568 18.0894 11.3071 18.2026 11.2076 18.2952C11.1115 18.3844 10.988 18.4291 10.837 18.4291ZM13.5762 16.2469H13.1027V18.3879H12.2226V16.2469H11.9035V15.5161H12.2226V15.4337C12.2226 15.0803 12.3238 14.8127 12.5263 14.6308C12.7287 14.4456 13.0255 14.3529 13.4166 14.3529C13.4818 14.3529 13.5299 14.3546 13.5608 14.3581V15.1043C13.3926 15.094 13.2743 15.1181 13.2056 15.1764C13.137 15.2347 13.1027 15.3394 13.1027 15.4903V15.5161H13.5762V16.2469ZM14.6897 15.2176C14.5353 15.2176 14.4083 15.173 14.3088 15.0837C14.2128 14.9911 14.1647 14.8779 14.1647 14.7441C14.1647 14.6068 14.2128 14.4936 14.3088 14.4044C14.4083 14.3118 14.5353 14.2654 14.6897 14.2654C14.8406 14.2654 14.9642 14.3118 15.0602 14.4044C15.1597 14.4936 15.2095 14.6068 15.2095 14.7441C15.2095 14.8779 15.1597 14.9911 15.0602 15.0837C14.9642 15.173 14.8406 15.2176 14.6897 15.2176ZM15.1271 15.5161V18.3879H14.2471V15.5161H15.1271ZM17.1133 15.4749C17.3158 15.4749 17.4925 15.5161 17.6434 15.5984C17.7978 15.6808 17.9162 15.7888 17.9985 15.9226V15.5161H18.8786V18.3827C18.8786 18.6469 18.8254 18.8854 18.7191 19.0981C18.6161 19.3143 18.4566 19.4858 18.2404 19.6128C18.0277 19.7397 17.7618 19.8032 17.4427 19.8032C17.0173 19.8032 16.6724 19.702 16.4082 19.4995C16.144 19.3005 15.9931 19.0295 15.9553 18.6864H16.8251C16.8526 18.7962 16.9178 18.882 17.0207 18.9437C17.1236 19.0089 17.2506 19.0415 17.4015 19.0415C17.5834 19.0415 17.7275 18.9883 17.8339 18.882C17.9437 18.779 17.9985 18.6126 17.9985 18.3827V17.9761C17.9128 18.11 17.7944 18.2198 17.6434 18.3055C17.4925 18.3879 17.3158 18.4291 17.1133 18.4291C16.8766 18.4291 16.6621 18.369 16.47 18.2489C16.2779 18.1254 16.1252 17.9521 16.012 17.7291C15.9022 17.5027 15.8473 17.2419 15.8473 16.9468C15.8473 16.6518 15.9022 16.3927 16.012 16.1697C16.1252 15.9467 16.2779 15.7751 16.47 15.655C16.6621 15.5349 16.8766 15.4749 17.1133 15.4749ZM17.9985 16.952C17.9985 16.7324 17.9368 16.5591 17.8133 16.4322C17.6932 16.3052 17.5456 16.2417 17.3707 16.2417C17.1957 16.2417 17.0464 16.3052 16.9229 16.4322C16.8028 16.5557 16.7428 16.7272 16.7428 16.9468C16.7428 17.1664 16.8028 17.3414 16.9229 17.4718C17.0464 17.5987 17.1957 17.6622 17.3707 17.6622C17.5456 17.6622 17.6932 17.5987 17.8133 17.4718C17.9368 17.3448 17.9985 17.1716 17.9985 16.952Z" fill="white"/>
</g>
<defs>
<filter id="filter0_d_0_980" x="0.812927" y="0.492004" width="28.5865" height="35.4487" filterUnits="userSpaceOnUse" color-interpolation-filters="sRGB">
<feFlood flood-opacity="0" result="BackgroundImageFix"/>
<feColorMatrix in="SourceAlpha" type="matrix" values="0 0 0 0 0 0 0 0 0 0 0 0 0 0 0 0 0 0 127 0" result="hardAlpha"/>
<feOffset dy="4"/>
<feGaussianBlur stdDeviation="2"/>
<feComposite in2="hardAlpha" operator="out"/>
<feColorMatrix type="matrix" values="0 0 0 0 0 0 0 0 0 0 0 0 0 0 0 0 0 0 0.25 0"/>
<feBlend mode="normal" in2="BackgroundImageFix" result="effect1_dropShadow_0_980"/>
<feBlend mode="normal" in="SourceGraphic" in2="effect1_dropShadow_0_980" result="shape"/>
</filter>
</defs>
</svg>
