<svg width="19" height="19" viewBox="0 0 19 19" fill="none" xmlns="http://www.w3.org/2000/svg">
<path d="M14.8923 2.92293H3.64909C3.33861 2.92293 3.08693 3.17462 3.08693 3.48509V14.7283C3.08693 15.0388 3.33861 15.2905 3.64909 15.2905H14.8923C15.2028 15.2905 15.4545 15.0388 15.4545 14.7283V3.48509C15.4545 3.17462 15.2028 2.92293 14.8923 2.92293Z" stroke="#727272" stroke-width="1.34919" stroke-linecap="round" stroke-linejoin="round"/>
<path d="M12.6437 1.79861V4.04726" stroke="#727272" stroke-width="1.34919" stroke-linecap="round" stroke-linejoin="round"/>
<path d="M5.89774 1.79861V4.04726" stroke="#727272" stroke-width="1.34919" stroke-linecap="round" stroke-linejoin="round"/>
<path d="M3.08693 6.2959H15.4545" stroke="#727272" stroke-width="1.34919" stroke-linecap="round" stroke-linejoin="round"/>
<path d="M6.74098 9.10649H8.70855L7.58422 10.5119C7.76909 10.5119 7.95111 10.5575 8.11415 10.6446C8.2772 10.7317 8.41624 10.8577 8.51897 11.0114C8.6217 11.1651 8.68495 11.3418 8.70311 11.5258C8.72127 11.7097 8.69379 11.8953 8.6231 12.0662C8.5524 12.237 8.44068 12.3877 8.29782 12.5051C8.15496 12.6224 7.98537 12.7027 7.80407 12.7388C7.62277 12.775 7.43536 12.7659 7.25842 12.7123C7.08149 12.6587 6.92049 12.5624 6.78969 12.4317" stroke="#727272" stroke-width="1.34919" stroke-linecap="round" stroke-linejoin="round"/>
<path d="M10.395 9.94973L11.5194 9.10649V12.7605" stroke="#727272" stroke-width="1.34919" stroke-linecap="round" stroke-linejoin="round"/>
</svg>
