<svg width="21" height="10" viewBox="0 0 21 10" fill="none" xmlns="http://www.w3.org/2000/svg">
<path d="M7.31808 9.66007C6.3563 9.66007 5.87542 9.3123 5.87542 8.61676C5.87542 8.23072 5.9869 7.84801 6.20987 7.46862C6.43284 7.08591 6.74401 6.74147 7.14336 6.4353C7.54604 6.1258 8.02027 5.87787 8.56605 5.69151C9.11183 5.50514 9.70754 5.41196 10.3532 5.41196C11.0021 5.41196 11.5978 5.50514 12.1403 5.69151C12.686 5.87787 13.1603 6.1258 13.563 6.4353C13.9656 6.74147 14.2785 7.08591 14.5014 7.46862C14.7244 7.84801 14.8359 8.23072 14.8359 8.61676C14.8359 9.3123 14.355 9.66007 13.3932 9.66007H7.31808ZM7.39295 8.44205H13.3183C13.3583 8.44205 13.3849 8.43373 13.3982 8.41709C13.4149 8.40045 13.4232 8.37715 13.4232 8.3472C13.4232 8.20077 13.3533 8.03105 13.2135 7.83803C13.0771 7.64501 12.8774 7.45698 12.6145 7.27394C12.3516 7.08758 12.0288 6.93449 11.6461 6.81468C11.2667 6.69488 10.8357 6.63498 10.3532 6.63498C9.8706 6.63498 9.43964 6.69488 9.06025 6.81468C8.68087 6.93449 8.35972 7.08758 8.09681 7.27394C7.83391 7.45698 7.63257 7.64501 7.49279 7.83803C7.35635 8.03105 7.28812 8.20077 7.28812 8.3472C7.28812 8.37715 7.29478 8.40045 7.30809 8.41709C7.32473 8.43373 7.35302 8.44205 7.39295 8.44205ZM10.3532 4.94771C9.93051 4.94771 9.54779 4.83955 9.20502 4.62324C8.86224 4.40359 8.58935 4.10907 8.38634 3.73967C8.18334 3.36694 8.08184 2.95428 8.08184 2.50168C8.07851 2.05906 8.18001 1.65472 8.38634 1.28864C8.59268 0.922572 8.86723 0.629713 9.21001 0.410069C9.55611 0.190425 9.93716 0.0806035 10.3532 0.0806035C10.7725 0.0806035 11.1535 0.190425 11.4963 0.410069C11.8424 0.626385 12.117 0.91758 12.32 1.28365C12.5263 1.64973 12.6295 2.05407 12.6295 2.49669C12.6295 2.95261 12.528 3.36694 12.325 3.73967C12.122 4.10907 11.8491 4.40359 11.5063 4.62324C11.1635 4.83955 10.7791 4.94771 10.3532 4.94771ZM10.3532 3.73468C10.5462 3.73468 10.7209 3.68143 10.8773 3.57494C11.037 3.46512 11.1635 3.31702 11.2567 3.13066C11.3499 2.94097 11.3965 2.72964 11.3965 2.49669C11.3965 2.27371 11.3482 2.07237 11.2517 1.89267C11.1585 1.70963 11.0321 1.56486 10.8723 1.45837C10.7159 1.35188 10.5428 1.29863 10.3532 1.29863C10.1701 1.29863 9.99873 1.35188 9.83899 1.45837C9.67925 1.56486 9.55112 1.70963 9.45461 1.89267C9.3581 2.07237 9.31151 2.27371 9.31484 2.49669C9.31484 2.73297 9.36143 2.94429 9.45461 3.13066C9.55112 3.31702 9.67758 3.46512 9.834 3.57494C9.99374 3.68143 10.1668 3.73468 10.3532 3.73468ZM1.80202 9.66506C1.38603 9.66506 1.0732 9.56855 0.863542 9.37553C0.653882 9.18584 0.549052 8.91295 0.549052 8.55686C0.549052 8.1442 0.650554 7.74984 0.853558 7.37378C1.05656 6.99439 1.33611 6.65827 1.6922 6.36541C2.05162 6.07255 2.46761 5.84126 2.94017 5.67154C3.41274 5.49849 3.92025 5.41196 4.46271 5.41196C4.67569 5.41196 4.90366 5.43359 5.1466 5.47685C5.39286 5.51679 5.6358 5.57336 5.87542 5.64658C6.11503 5.71647 6.33467 5.79966 6.53435 5.89617C6.32469 6.02264 6.14664 6.16407 6.00021 6.32049C5.85378 6.47357 5.73398 6.6433 5.6408 6.82966C5.54761 6.78973 5.43114 6.75312 5.29136 6.71984C5.15159 6.68656 5.00682 6.65994 4.85707 6.63997C4.71064 6.61667 4.57918 6.60502 4.46271 6.60502C4.10329 6.60502 3.76717 6.65661 3.45434 6.75977C3.14151 6.85961 2.86696 6.99606 2.63068 7.16911C2.39439 7.33884 2.21136 7.52853 2.08157 7.73819C1.95178 7.94785 1.88688 8.16084 1.88688 8.37715C1.88688 8.40045 1.89187 8.42208 1.90186 8.44205C1.91517 8.45869 1.94013 8.46701 1.97674 8.46701H5.04177C5.0218 8.67667 5.05508 8.89964 5.14161 9.13592C5.23146 9.3722 5.36957 9.54859 5.55593 9.66506H1.80202ZM4.4677 5.03757C4.09497 5.03757 3.75718 4.94106 3.45434 4.74804C3.15483 4.55502 2.91522 4.29544 2.73551 3.9693C2.55913 3.64316 2.46927 3.28042 2.46594 2.88106C2.46594 2.49169 2.5558 2.1356 2.73551 1.81279C2.91522 1.48998 3.15649 1.23373 3.45933 1.04404C3.7655 0.851021 4.10162 0.754511 4.4677 0.754511C4.83044 0.754511 5.16157 0.851021 5.46109 1.04404C5.76393 1.23373 6.00521 1.48998 6.18491 1.81279C6.36795 2.13228 6.45947 2.4867 6.45947 2.87607C6.45947 3.27542 6.36961 3.63983 6.18991 3.9693C6.01352 4.29544 5.77391 4.55502 5.47107 4.74804C5.16823 4.94106 4.83377 5.03757 4.4677 5.03757ZM4.4677 3.83951C4.6108 3.83951 4.74225 3.79791 4.86206 3.71471C4.98519 3.63151 5.08337 3.5167 5.15658 3.37027C5.2298 3.22384 5.2664 3.05911 5.2664 2.87607C5.2664 2.70302 5.22813 2.54661 5.15159 2.40683C5.07837 2.26706 4.9802 2.15557 4.85707 2.07237C4.73726 1.98918 4.60747 1.94758 4.4677 1.94758C4.3246 1.94758 4.19148 1.98918 4.06835 2.07237C3.94521 2.15557 3.84704 2.26872 3.77382 2.41182C3.70061 2.5516 3.664 2.70801 3.664 2.88106C3.664 3.0641 3.70061 3.22883 3.77382 3.37526C3.84704 3.51836 3.94355 3.63151 4.06335 3.71471C4.18649 3.79791 4.32127 3.83951 4.4677 3.83951ZM18.9093 9.66506H15.1554C15.3451 9.54859 15.4832 9.3722 15.5697 9.13592C15.6596 8.89964 15.6945 8.67667 15.6745 8.46701H18.7346C18.7745 8.46701 18.8011 8.45869 18.8144 8.44205C18.8277 8.42208 18.8344 8.40045 18.8344 8.37715C18.8344 8.16084 18.7678 7.94785 18.6347 7.73819C18.5016 7.52853 18.3169 7.33884 18.0806 7.16911C17.8477 6.99606 17.5748 6.85961 17.262 6.75977C16.9491 6.65661 16.6113 6.60502 16.2486 6.60502C16.1354 6.60502 16.004 6.61667 15.8542 6.63997C15.7078 6.65994 15.5647 6.68656 15.4249 6.71984C15.2852 6.75312 15.1703 6.78973 15.0805 6.82966C14.984 6.6433 14.8625 6.47357 14.7161 6.32049C14.5697 6.16407 14.3916 6.02264 14.1819 5.89617C14.3816 5.79966 14.6013 5.71647 14.8409 5.64658C15.0805 5.57336 15.3218 5.51679 15.5647 5.47685C15.811 5.43359 16.0389 5.41196 16.2486 5.41196C16.7944 5.41196 17.3036 5.49849 17.7761 5.67154C18.2487 5.84126 18.663 6.07255 19.0191 6.36541C19.3785 6.65827 19.6597 6.99439 19.8627 7.37378C20.0657 7.74984 20.1672 8.1442 20.1672 8.55686C20.1672 8.91295 20.0624 9.18584 19.8528 9.37553C19.6431 9.56855 19.3286 9.66506 18.9093 9.66506ZM16.2486 5.03757C15.8825 5.03757 15.5481 4.94106 15.2452 4.74804C14.9424 4.55502 14.7011 4.29544 14.5214 3.9693C14.345 3.63983 14.2568 3.27542 14.2568 2.87607C14.2568 2.4867 14.3467 2.13228 14.5264 1.81279C14.7061 1.48998 14.9474 1.23373 15.2502 1.04404C15.5531 0.851021 15.8859 0.754511 16.2486 0.754511C16.6147 0.754511 16.9491 0.851021 17.252 1.04404C17.5581 1.23373 17.8011 1.48998 17.9808 1.81279C18.1605 2.1356 18.2504 2.49169 18.2504 2.88106C18.247 3.28042 18.1555 3.64316 17.9758 3.9693C17.7961 4.29544 17.5565 4.55502 17.257 4.74804C16.9574 4.94106 16.6213 5.03757 16.2486 5.03757ZM16.2486 3.83951C16.395 3.83951 16.5281 3.79791 16.6479 3.71471C16.7711 3.63151 16.8693 3.51836 16.9425 3.37526C17.0157 3.22883 17.0523 3.0641 17.0523 2.88106C17.0523 2.70801 17.0157 2.5516 16.9425 2.41182C16.8693 2.26872 16.7711 2.15557 16.6479 2.07237C16.5248 1.98918 16.3917 1.94758 16.2486 1.94758C16.1088 1.94758 15.9774 1.98918 15.8542 2.07237C15.7344 2.15557 15.6363 2.26706 15.5597 2.40683C15.4865 2.54661 15.4499 2.70302 15.4499 2.87607C15.4499 3.05911 15.4865 3.22384 15.5597 3.37027C15.6329 3.5167 15.7294 3.63151 15.8492 3.71471C15.9724 3.79791 16.1055 3.83951 16.2486 3.83951Z" fill="#727272"/>
</svg>
