<svg width="9" height="9" viewBox="0 0 9 9" fill="none" xmlns="http://www.w3.org/2000/svg">
<path d="M4.73188 4.58172C4.73188 4.72012 4.61968 4.83231 4.48128 4.83231C4.34288 4.83231 4.23069 4.72012 4.23069 4.58172C4.23069 4.44332 4.34288 4.33112 4.48128 4.33112C4.61968 4.33112 4.73188 4.44332 4.73188 4.58172Z" fill="#1C1D1D"/>
<path d="M4.73188 4.58172C4.73188 4.72012 4.61968 4.83231 4.48128 4.83231C4.34288 4.83231 4.23069 4.72012 4.23069 4.58172C4.23069 4.44332 4.34288 4.33112 4.48128 4.33112M4.73188 4.58172C4.73188 4.44332 4.61968 4.33112 4.48128 4.33112M4.73188 4.58172H5.98486M4.48128 4.33112V2.74401M7.48845 4.58172C7.48845 6.24253 6.14209 7.58888 4.48128 7.58888C2.82047 7.58888 1.47412 6.24253 1.47412 4.58172C1.47412 2.92091 2.82047 1.57455 4.48128 1.57455C6.14209 1.57455 7.48845 2.92091 7.48845 4.58172Z" stroke="#1C1D1D" stroke-width="0.501194" stroke-linecap="round" stroke-linejoin="round"/>
</svg>
