<svg width="18" height="16" viewBox="0 0 18 16" fill="none" xmlns="http://www.w3.org/2000/svg">
<path d="M9.33531 9.24187C9.06886 9.24597 8.79422 9.21318 8.51139 9.14349C8.23265 9.06971 7.92521 8.95698 7.58909 8.80532L1.51422 6.02613C1.29287 5.93185 1.12481 5.79453 1.01003 5.61417C0.899359 5.42971 0.844021 5.235 0.844021 5.03005C0.844021 4.82509 0.899359 4.63243 1.01003 4.45207C1.12481 4.27171 1.29287 4.13234 1.51422 4.03396L7.58909 1.25477C7.92521 1.10721 8.23265 0.998581 8.51139 0.928896C8.79422 0.855113 9.06886 0.82027 9.33531 0.824369C9.60175 0.82027 9.87639 0.855113 10.1592 0.928896C10.4421 0.998581 10.7515 1.10721 11.0877 1.25477L17.1625 4.03396C17.3839 4.13234 17.5499 4.27171 17.6606 4.45207C17.7754 4.63243 17.8327 4.82509 17.8327 5.03005C17.8327 5.235 17.7754 5.42971 17.6606 5.61417C17.5499 5.79453 17.3839 5.93185 17.1625 6.02613L11.0877 8.80532C10.7515 8.95698 10.4421 9.06971 10.1592 9.14349C9.87639 9.21318 9.60175 9.24597 9.33531 9.24187ZM9.33531 8.05518C9.53206 8.05518 9.73087 8.02854 9.93172 7.97525C10.1367 7.91786 10.3683 7.83178 10.6265 7.717L16.1173 5.22065C16.2115 5.17556 16.2587 5.11203 16.2587 5.03005C16.2587 4.95216 16.2115 4.89068 16.1173 4.84559L10.6265 2.34923C10.3683 2.23036 10.1367 2.14428 9.93172 2.09099C9.73087 2.0377 9.53206 2.01106 9.33531 2.01106C9.13855 2.01106 8.93974 2.0377 8.73889 2.09099C8.53803 2.14428 8.30848 2.23036 8.05024 2.34923L2.55949 4.84559C2.46521 4.89068 2.41808 4.95216 2.41808 5.03005C2.41808 5.11203 2.46521 5.17556 2.55949 5.22065L8.05024 7.717C8.30848 7.83178 8.53803 7.91786 8.73889 7.97525C8.93974 8.02854 9.13855 8.05518 9.33531 8.05518ZM3.26044 9.59849V6.38275H4.43483V9.59849C4.43483 9.91002 4.54961 10.2113 4.77916 10.5023C5.0128 10.7893 5.34483 11.0455 5.77524 11.2709C6.20564 11.4923 6.72213 11.6685 7.3247 11.7997C7.92726 11.935 8.59747 12.0026 9.33531 12.0026C10.0772 12.0026 10.7474 11.935 11.3459 11.7997C11.9485 11.6685 12.465 11.4923 12.8954 11.2709C13.3299 11.0455 13.6619 10.7893 13.8915 10.5023C14.1251 10.2113 14.2419 9.91002 14.2419 9.59849V6.38275H15.4163V9.59849C15.4163 10.0863 15.2688 10.5433 14.9736 10.9696C14.6826 11.3918 14.2686 11.7628 13.7316 12.0825C13.1946 12.4064 12.5531 12.6585 11.8071 12.8388C11.061 13.0192 10.2371 13.1094 9.33531 13.1094C8.4335 13.1094 7.60958 13.0192 6.86355 12.8388C6.12161 12.6585 5.4801 12.4064 4.93902 12.0825C4.40204 11.7628 3.98803 11.3918 3.69699 10.9696C3.40596 10.5433 3.26044 10.0863 3.26044 9.59849ZM9.35375 5.81092C9.1242 5.81092 8.90285 5.77813 8.6897 5.71255C8.48064 5.64286 8.30848 5.55063 8.17321 5.43586C8.04204 5.31698 7.97645 5.18171 7.97645 5.03005C7.97645 4.88248 8.04204 4.75131 8.17321 4.63653C8.30848 4.52176 8.48064 4.43158 8.6897 4.36599C8.90285 4.30041 9.1242 4.26761 9.35375 4.26761C9.5874 4.26761 9.80875 4.30041 10.0178 4.36599C10.231 4.43158 10.4031 4.52176 10.5343 4.63653C10.6655 4.75131 10.731 4.88248 10.731 5.03005C10.731 5.18171 10.6655 5.31698 10.5343 5.43586C10.4031 5.55063 10.233 5.64286 10.024 5.71255C9.8149 5.77813 9.5915 5.81092 9.35375 5.81092ZM5.77524 7.30505L4.87139 6.82545L8.82497 4.77795L9.23078 5.49119L5.77524 7.30505ZM4.87139 13.3123V6.85005L5.77524 7.30505V13.3184L4.87139 13.3123ZM4.3303 13.4598C4.3303 13.2016 4.40819 12.9925 4.56395 12.8327C4.72382 12.6769 4.93492 12.599 5.19726 12.599H5.44321C5.70145 12.599 5.90846 12.6769 6.06422 12.8327C6.22409 12.9925 6.30402 13.2016 6.30402 13.4598V15.1077C6.30402 15.37 6.22409 15.5791 6.06422 15.7348C5.90846 15.8947 5.70145 15.9746 5.44321 15.9746H5.19726C4.93492 15.9746 4.72382 15.8947 4.56395 15.7348C4.40819 15.5791 4.3303 15.37 4.3303 15.1077V13.4598Z" fill="#727272"/>
</svg>
