<svg width="16" height="16" viewBox="0 0 16 16" fill="none" xmlns="http://www.w3.org/2000/svg">
<path d="M12.0315 12.9479L7.40961 8.43699C7.33566 8.36797 7.2839 8.29649 7.25432 8.22254C7.22474 8.14859 7.20995 8.05985 7.20995 7.95632V1.3304H8.39314V7.04673L13.2443 4.26622L13.8433 5.29412L8.87382 8.1338L12.9263 12.1197L12.0315 12.9479ZM7.79415 15.44C6.74899 15.44 5.76546 15.2404 4.84355 14.8411C3.92164 14.4467 3.10819 13.897 2.4032 13.192C1.70314 12.487 1.15345 11.6735 0.754119 10.7516C0.354789 9.82971 0.155124 8.84618 0.155124 7.80102C0.155124 6.75586 0.354789 5.77233 0.754119 4.85042C1.15345 3.92851 1.70314 3.11753 2.4032 2.41747C3.10819 1.71248 3.91917 1.16032 4.83615 0.76099C5.75806 0.36166 6.7416 0.161996 7.78676 0.161996C8.83684 0.161996 9.82284 0.36166 10.7448 0.76099C11.6667 1.16032 12.4801 1.71248 13.1851 2.41747C13.8901 3.11753 14.4422 3.92851 14.8416 4.85042C15.2409 5.77233 15.4406 6.75586 15.4406 7.80102C15.4406 8.84618 15.2409 9.82971 14.8416 10.7516C14.4422 11.6735 13.8901 12.487 13.1851 13.192C12.4801 13.897 11.6667 14.4467 10.7448 14.8411C9.82284 15.2404 8.83931 15.44 7.79415 15.44ZM7.79415 13.9315C8.64704 13.9315 9.44323 13.7737 10.1827 13.4582C10.9222 13.1427 11.573 12.7039 12.135 12.1419C12.697 11.5799 13.1358 10.9291 13.4513 10.1896C13.7668 9.4501 13.9246 8.65391 13.9246 7.80102C13.9246 6.95306 13.7668 6.15933 13.4513 5.41983C13.1358 4.67541 12.697 4.02218 12.135 3.46016C11.573 2.89814 10.9198 2.45937 10.1753 2.14385C9.43584 1.82833 8.63964 1.67057 7.78676 1.67057C6.9388 1.67057 6.1426 1.82833 5.39817 2.14385C4.65867 2.45937 4.01038 2.89814 3.45329 3.46016C2.8962 4.02218 2.4599 4.67541 2.14438 5.41983C1.82886 6.15933 1.6711 6.95306 1.6711 7.80102C1.6711 8.65391 1.82886 9.4501 2.14438 10.1896C2.4599 10.9291 2.8962 11.5799 3.45329 12.1419C4.01531 12.7039 4.66607 13.1427 5.40557 13.4582C6.15 13.7737 6.94619 13.9315 7.79415 13.9315Z" fill="#727272"/>
</svg>
