<svg width="17" height="13" viewBox="0 0 17 13" fill="none" xmlns="http://www.w3.org/2000/svg">
<path d="M8.05974 9.38833H7.16298L5.421 10.919C5.20798 11.1045 5.02072 11.2385 4.85924 11.321C4.70119 11.4035 4.53455 11.4447 4.35932 11.4447C4.10507 11.4447 3.90579 11.3639 3.76148 11.2025C3.61718 11.041 3.54502 10.8194 3.54502 10.5376V9.38833H3.39556C2.91798 9.38833 2.49537 9.28697 2.12773 9.08426C1.76353 8.88154 1.47664 8.59121 1.26705 8.21327C1.0609 7.83532 0.957823 7.38523 0.957823 6.86298V2.77602C0.957823 2.25721 1.05918 1.80883 1.2619 1.43089C1.46461 1.05294 1.75322 0.762611 2.12773 0.559895C2.50568 0.353744 2.95749 0.250668 3.48318 0.250668H9.94603C10.4717 0.250668 10.9235 0.353744 11.3015 0.559895C11.6794 0.762611 11.968 1.05294 12.1673 1.43089C12.37 1.80883 12.4714 2.25721 12.4714 2.77602V3.63155H11.1417V2.85848C11.1417 2.43587 11.0352 2.11806 10.8222 1.90503C10.6126 1.68857 10.2948 1.58034 9.86872 1.58034H3.56564C3.13616 1.58034 2.8149 1.68857 2.60188 1.90503C2.39229 2.11806 2.2875 2.43587 2.2875 2.85848V6.78567C2.2875 7.20828 2.39229 7.5261 2.60188 7.73912C2.8149 7.95214 3.13616 8.05865 3.56564 8.05865H4.20471C4.35932 8.05865 4.47614 8.09645 4.55517 8.17204C4.63763 8.24419 4.67886 8.36616 4.67886 8.53796V9.96555L6.29199 8.38334C6.41912 8.25622 6.53422 8.17032 6.63729 8.12565C6.74381 8.08099 6.88639 8.05865 7.06506 8.05865H7.51859L8.05974 9.38833ZM9.25026 10.4449C8.75894 10.4449 8.33633 10.3572 7.98243 10.182C7.63198 10.0068 7.36226 9.75425 7.17329 9.42441C6.98775 9.09456 6.89498 8.69772 6.89498 8.23388V5.07977C6.89498 4.59875 6.98775 4.18644 7.17329 3.84286C7.36226 3.49927 7.63198 3.23643 7.98243 3.05433C8.33633 2.86879 8.75894 2.77602 9.25026 2.77602H14.2391C14.7339 2.77602 15.1565 2.86879 15.507 3.05433C15.8574 3.23643 16.1254 3.49927 16.311 3.84286C16.4999 4.18644 16.5944 4.59875 16.5944 5.07977V8.23388C16.5944 8.69772 16.5051 9.09456 16.3264 9.42441C16.1477 9.75425 15.8901 10.0068 15.5533 10.182C15.2166 10.3572 14.8112 10.4449 14.3371 10.4449H14.2546V11.5375C14.2546 11.8123 14.1824 12.0322 14.0381 12.1971C13.8938 12.3621 13.6963 12.4445 13.4454 12.4445C13.2874 12.4445 13.119 12.3964 12.9404 12.3002C12.7617 12.2075 12.5779 12.0803 12.3889 11.9188L10.6727 10.4449H9.25026ZM9.44095 9.17703H10.6779C10.8222 9.17703 10.9665 9.20967 11.1108 9.27495C11.2551 9.33679 11.3891 9.42784 11.5128 9.5481L13.1208 11.0272V9.70271C13.1208 9.53435 13.1689 9.40551 13.2651 9.31618C13.3613 9.22341 13.485 9.17703 13.6361 9.17703H14.0536C14.4625 9.17703 14.7717 9.07051 14.9813 8.85749C15.1909 8.64447 15.2957 8.34039 15.2957 7.94527V5.28076C15.2957 4.8822 15.1909 4.57641 14.9813 4.36339C14.7717 4.15037 14.4625 4.04385 14.0536 4.04385H9.44095C9.02865 4.04385 8.71771 4.15037 8.50812 4.36339C8.30197 4.57641 8.19889 4.8822 8.19889 5.28076V7.94527C8.19889 8.34039 8.30197 8.64447 8.50812 8.85749C8.71771 9.07051 9.02865 9.17703 9.44095 9.17703Z" fill="#727272"/>
</svg>
