<svg width="13" height="16" viewBox="0 0 13 16" fill="none" xmlns="http://www.w3.org/2000/svg">
<path d="M2.41452 15.405C1.64788 15.405 1.06818 15.211 0.675395 14.8229C0.282614 14.4349 0.0862229 13.8599 0.0862229 13.098V6.11312C0.0862229 5.35595 0.282614 4.78334 0.675395 4.39529C1.06818 4.00251 1.64788 3.80612 2.41452 3.80612H4.47307V5.20452H2.4997C2.16844 5.20452 1.91526 5.29206 1.74016 5.46716C1.5698 5.63752 1.48462 5.89543 1.48462 6.24089V12.9773C1.48462 13.3228 1.5698 13.5807 1.74016 13.7511C1.91526 13.9262 2.16844 14.0137 2.4997 14.0137H10.4997C10.8262 14.0137 11.077 13.9262 11.2521 13.7511C11.4319 13.5807 11.5218 13.3228 11.5218 12.9773V6.24089C11.5218 5.89543 11.4319 5.63752 11.2521 5.46716C11.077 5.29206 10.8262 5.20452 10.4997 5.20452H8.53339V3.80612H10.5919C11.3586 3.80612 11.9383 4.00251 12.3311 4.39529C12.7238 4.78334 12.9202 5.35595 12.9202 6.11312V13.098C12.9202 13.8552 12.7238 14.4278 12.3311 14.8158C11.9383 15.2086 11.3586 15.405 10.5919 15.405H2.41452ZM6.50323 10.8052C6.41805 10.8052 6.33523 10.791 6.25479 10.7626C6.17434 10.7295 6.08915 10.6703 5.99924 10.5852L3.61416 8.28525C3.49585 8.16221 3.4367 8.02261 3.4367 7.86644C3.4367 7.70081 3.49112 7.56594 3.59996 7.46183C3.71354 7.35772 3.85314 7.30566 4.01877 7.30566C4.1986 7.30566 4.3453 7.36955 4.45887 7.49732L5.45266 8.55499L5.91406 9.07318L5.84307 8.01551V0.661502C5.84307 0.486407 5.90696 0.334973 6.03473 0.207201C6.16724 0.0794285 6.3234 0.0155423 6.50323 0.0155423C6.68306 0.0155423 6.83686 0.0794285 6.96463 0.207201C7.09714 0.334973 7.16339 0.486407 7.16339 0.661502V8.01551L7.0924 9.07318L7.5467 8.55499L8.54049 7.49732C8.6588 7.36955 8.8055 7.30566 8.98059 7.30566C9.14149 7.30566 9.27873 7.35772 9.3923 7.46183C9.51061 7.56594 9.56977 7.70081 9.56977 7.86644C9.56977 8.02261 9.50825 8.16221 9.38521 8.28525L7.00012 10.5852C6.91494 10.6703 6.83213 10.7295 6.75168 10.7626C6.67123 10.791 6.58841 10.8052 6.50323 10.8052Z" fill="#FFFFFF"/>
</svg>
