<svg width="7" height="9" viewBox="0 0 7 9" fill="none" xmlns="http://www.w3.org/2000/svg">
<path d="M1.25949 8.58038C0.848878 8.58038 0.538389 8.47646 0.328016 8.26863C0.117643 8.06079 0.012457 7.75283 0.012457 7.34476V3.60368C0.012457 3.19814 0.117643 2.89145 0.328016 2.68361C0.538389 2.47324 0.848878 2.36805 1.25949 2.36805H2.36204V3.11703H1.30511C1.12769 3.11703 0.992084 3.16392 0.898303 3.2577C0.807057 3.34895 0.761434 3.48708 0.761434 3.67211V7.28013C0.761434 7.46516 0.807057 7.60329 0.898303 7.69454C0.992084 7.78832 1.12769 7.83521 1.30511 7.83521H5.58987C5.76475 7.83521 5.89909 7.78832 5.99287 7.69454C6.08918 7.60329 6.13734 7.46516 6.13734 7.28013V3.67211C6.13734 3.48708 6.08918 3.34895 5.99287 3.2577C5.89909 3.16392 5.76475 3.11703 5.58987 3.11703H4.53674V2.36805H5.63929C6.0499 2.36805 6.36039 2.47324 6.57076 2.68361C6.78113 2.89145 6.88632 3.19814 6.88632 3.60368V7.34476C6.88632 7.7503 6.78113 8.05699 6.57076 8.26482C6.36039 8.4752 6.0499 8.58038 5.63929 8.58038H1.25949ZM3.44939 6.11674C3.40377 6.11674 3.35941 6.10914 3.31632 6.09393C3.27323 6.07619 3.22761 6.04451 3.17945 5.99888L1.90201 4.76706C1.83864 4.70116 1.80696 4.62639 1.80696 4.54275C1.80696 4.45404 1.83611 4.3818 1.8944 4.32604C1.95524 4.27028 2.03001 4.2424 2.11872 4.2424C2.21503 4.2424 2.29361 4.27662 2.35444 4.34505L2.8867 4.91154L3.13383 5.18908L3.09581 4.62259V0.683806C3.09581 0.590026 3.13003 0.508918 3.19846 0.440484C3.26943 0.372049 3.35307 0.337832 3.44939 0.337832C3.5457 0.337832 3.62808 0.372049 3.69651 0.440484C3.76748 0.508918 3.80297 0.590026 3.80297 0.683806V4.62259L3.76495 5.18908L4.00827 4.91154L4.54054 4.34505C4.6039 4.27662 4.68248 4.2424 4.77626 4.2424C4.86243 4.2424 4.93594 4.27028 4.99677 4.32604C5.06013 4.3818 5.09182 4.45404 5.09182 4.54275C5.09182 4.62639 5.05887 4.70116 4.99297 4.76706L3.71552 5.99888C3.6699 6.04451 3.62554 6.07619 3.58246 6.09393C3.53937 6.10914 3.49501 6.11674 3.44939 6.11674Z" fill="#FF4B00"/>
</svg>
