<svg width="9" height="9" viewBox="0 0 9 9" fill="none" xmlns="http://www.w3.org/2000/svg">
<path d="M3.83427 3.2452C3.83427 3.42974 3.68468 3.57933 3.50014 3.57933C3.31561 3.57933 3.16602 3.42974 3.16602 3.2452C3.16602 3.06067 3.31561 2.91107 3.50014 2.91107C3.68468 2.91107 3.83427 3.06067 3.83427 3.2452Z" fill="#1C1D1D"/>
<path d="M4.58598 3.2452H5.75543M3.41652 4.58172H5.75543M3.41652 5.91824H5.75543M4.05137 7.58888H5.12058C5.87232 7.58888 6.24819 7.58888 6.51168 7.39744C6.59678 7.33562 6.67161 7.26078 6.73344 7.17568C6.92488 6.91219 6.92488 6.53632 6.92488 5.78458V3.37885C6.92488 2.62712 6.92488 2.25125 6.73344 1.98775C6.67161 1.90266 6.59678 1.82782 6.51168 1.76599C6.24819 1.57455 5.87232 1.57455 5.12058 1.57455H4.05137C3.29963 1.57455 2.92376 1.57455 2.66027 1.76599C2.57517 1.82782 2.50034 1.90266 2.43851 1.98775C2.24707 2.25125 2.24707 2.62712 2.24707 3.37885V5.78458C2.24707 6.53632 2.24707 6.91219 2.43851 7.17568C2.50034 7.26078 2.57517 7.33562 2.66027 7.39744C2.92376 7.58888 3.29963 7.58888 4.05137 7.58888Z" stroke="#1C1D1D" stroke-width="0.501194" stroke-linecap="round" stroke-linejoin="round"/>
</svg>
