<svg width="19" height="19" viewBox="0 0 19 19" fill="none" xmlns="http://www.w3.org/2000/svg">
<rect x="0.0158691" y="0.395264" width="18.5893" height="18.5893" rx="1.85893" fill="#FF4B00" fill-opacity="0.06"/>
<path d="M12.3313 5.04258H12.3313C12.7627 5.04258 13.1764 5.21395 13.4814 5.51899C13.7865 5.82402 13.9578 6.23774 13.9578 6.66913V6.66914C13.9578 7.10053 13.7865 7.51425 13.4814 7.81929C13.1764 8.12433 12.7627 8.2957 12.3313 8.2957H10.7047V6.66914C10.7047 6.23775 10.8761 5.82403 11.1811 5.51899C11.4862 5.21395 11.8999 5.04258 12.3313 5.04258V5.04258Z" stroke="#FF4B00" stroke-width="1.39419" stroke-linecap="round" stroke-linejoin="round"/>
<path d="M7.91632 8.2957H6.28976C5.85837 8.2957 5.44465 8.12433 5.13961 7.81929C4.83457 7.51425 4.6632 7.10053 4.6632 6.66914V6.66913C4.6632 6.23774 4.83457 5.82402 5.13961 5.51898C5.44465 5.21394 5.85837 5.04258 6.28976 5.04258H6.28976C6.72115 5.04258 7.13487 5.21395 7.43991 5.51898C7.74495 5.82402 7.91632 6.23775 7.91632 6.66914V8.2957Z" stroke="#FF4B00" stroke-width="1.39419" stroke-linecap="round" stroke-linejoin="round"/>
<path d="M10.7047 11.0841H12.3313C12.7627 11.0841 13.1764 11.2555 13.4814 11.5605C13.7865 11.8655 13.9578 12.2793 13.9578 12.7106V12.7106C13.9578 13.142 13.7865 13.5558 13.4814 13.8608C13.1764 14.1658 12.7627 14.3372 12.3313 14.3372H12.3313C11.8999 14.3372 11.4862 14.1658 11.1811 13.8608C10.8761 13.5558 10.7047 13.142 10.7047 12.7106V11.0841Z" stroke="#FF4B00" stroke-width="1.39419" stroke-linecap="round" stroke-linejoin="round"/>
<path d="M6.28976 14.3372H6.28976C5.85837 14.3372 5.44465 14.1658 5.13961 13.8608C4.83457 13.5558 4.6632 13.142 4.6632 12.7106V12.7106C4.6632 12.2793 4.83457 11.8655 5.13961 11.5605C5.44465 11.2555 5.85837 11.0841 6.28976 11.0841H7.91632V12.7106C7.91632 13.142 7.74495 13.5558 7.43991 13.8608C7.13487 14.1658 6.72115 14.3372 6.28976 14.3372V14.3372Z" stroke="#FF4B00" stroke-width="1.39419" stroke-linecap="round" stroke-linejoin="round"/>
<path d="M10.7047 8.2957H7.91632V11.0841H10.7047V8.2957Z" stroke="#FF4B00" stroke-width="1.39419" stroke-linecap="round" stroke-linejoin="round"/>
</svg>
