<svg width="17" height="17" viewBox="0 0 17 17" fill="none" xmlns="http://www.w3.org/2000/svg">
<path fill-rule="evenodd" clip-rule="evenodd" d="M6.15915 13.3566H3.34226C2.84972 13.3566 2.45044 12.9573 2.45044 12.4648V11.8828C2.45044 11.5459 2.58429 11.2227 2.82254 10.9845C3.43802 10.369 3.78379 9.53424 3.78379 8.66382V6.68986C3.78379 4.1125 5.87316 2.02313 8.45052 2.02313C11.0279 2.02313 13.1173 4.1125 13.1173 6.68986V8.66382C13.1173 9.53424 13.4631 10.369 14.0785 10.9845C14.3167 11.2227 14.4506 11.5459 14.4506 11.8828V12.4648C14.4506 12.9573 14.0513 13.3566 13.5588 13.3566H10.7419C10.7419 13.5943 10.7342 14.0475 10.4951 14.4815C10.0995 15.1997 9.33293 15.69 8.45052 15.69C7.56804 15.69 6.80153 15.1997 6.4059 14.4815C6.16685 14.0475 6.15915 13.5943 6.15915 13.3566ZM13.3714 11.6916C13.4221 11.7423 13.4506 11.8111 13.4506 11.8828V12.3566H3.45045V11.8828C3.45045 11.8111 3.47894 11.7423 3.52965 11.6916C4.33267 10.8886 4.7838 9.79944 4.7838 8.66382V6.68986C4.7838 4.66479 6.42545 3.02315 8.45052 3.02315C10.4756 3.02315 12.1172 4.66479 12.1172 6.68986V8.66382C12.1172 9.79944 12.5684 10.8886 13.3714 11.6916ZM9.74187 13.3566H7.15917C7.15917 13.578 7.17504 13.8052 7.28184 13.999C7.35631 14.1343 7.45364 14.2552 7.56858 14.3566C7.80358 14.5641 8.11238 14.69 8.45052 14.69C8.78866 14.69 9.0974 14.5641 9.33247 14.3566C9.4474 14.2552 9.54467 14.1343 9.6192 13.999C9.72601 13.8052 9.74187 13.578 9.74187 13.3566Z" fill="black"/>
<circle cx="12.4506" cy="4.02316" r="2.33337" fill="#D34645" stroke="white" stroke-width="0.666676"/>
</svg>
