<svg width="22" height="28" viewBox="0 0 22 28" fill="none" xmlns="http://www.w3.org/2000/svg">
<path d="M4.24401 0.436279H13.3244C13.7793 0.436376 14.2156 0.617184 14.5373 0.938933L20.8968 7.29844C21.2185 7.62009 21.3993 8.05638 21.3994 8.51133V24.4539C21.3994 25.3638 21.0379 26.2365 20.3945 26.88C19.751 27.5234 18.8783 27.8849 17.9683 27.8849H4.24401C3.33403 27.8849 2.46132 27.5234 1.81787 26.88C1.17442 26.2365 0.812927 25.3638 0.812927 24.4539V3.86736C0.812927 2.95738 1.17442 2.08467 1.81787 1.44122C2.46132 0.797767 3.33403 0.436279 4.24401 0.436279V0.436279ZM13.6795 3.00959V6.44067C13.6795 6.89566 13.8602 7.33202 14.182 7.65374C14.5037 7.97547 14.94 8.15621 15.395 8.15621H18.8261L13.6795 3.00959Z" fill="#27AE60"/>
<path d="M5.17577 17.52C5.02137 17.52 4.89442 17.4754 4.79492 17.3862C4.69885 17.2935 4.65081 17.1803 4.65081 17.0465C4.65081 16.9093 4.69885 16.7943 4.79492 16.7017C4.89442 16.609 5.02137 16.5627 5.17577 16.5627C5.32673 16.5627 5.45025 16.609 5.54632 16.7017C5.64583 16.7943 5.69558 16.9093 5.69558 17.0465C5.69558 17.1803 5.64583 17.2935 5.54632 17.3862C5.45025 17.4754 5.32673 17.52 5.17577 17.52ZM7.35395 15.0136C7.43973 14.8798 7.5581 14.7717 7.70907 14.6894C7.86004 14.607 8.03674 14.5658 8.23917 14.5658C8.47592 14.5658 8.69036 14.6259 8.8825 14.746C9.07464 14.8661 9.22561 15.0376 9.3354 15.2606C9.44863 15.4836 9.50524 15.7427 9.50524 16.0378C9.50524 16.3328 9.44863 16.5936 9.3354 16.8201C9.22561 17.0431 9.07464 17.2163 8.8825 17.3399C8.69036 17.4599 8.47592 17.52 8.23917 17.52C8.04017 17.52 7.86347 17.4788 7.70907 17.3965C7.5581 17.3141 7.43973 17.2078 7.35395 17.0774V18.8478H6.47388V14.607H7.35395V15.0136ZM8.60973 16.0378C8.60973 15.8182 8.54797 15.6466 8.42445 15.5231C8.30436 15.3962 8.15511 15.3327 7.9767 15.3327C7.80171 15.3327 7.65246 15.3962 7.52894 15.5231C7.40885 15.6501 7.34881 15.8233 7.34881 16.0429C7.34881 16.2625 7.40885 16.4358 7.52894 16.5627C7.65246 16.6897 7.80171 16.7531 7.9767 16.7531C8.15168 16.7531 8.30093 16.6897 8.42445 16.5627C8.54797 16.4323 8.60973 16.2574 8.60973 16.0378ZM11.9741 14.5761C12.3104 14.5761 12.578 14.6859 12.777 14.9055C12.9794 15.1217 13.0807 15.4202 13.0807 15.801V17.4788H12.2057V15.9194C12.2057 15.7273 12.156 15.578 12.0565 15.4716C11.957 15.3653 11.8232 15.3121 11.655 15.3121C11.4869 15.3121 11.3531 15.3653 11.2536 15.4716C11.1541 15.578 11.1044 15.7273 11.1044 15.9194V17.4788H10.2243V14.607H11.1044V14.9879C11.1936 14.8609 11.3137 14.7614 11.4646 14.6894C11.6156 14.6139 11.7854 14.5761 11.9741 14.5761ZM15.0406 14.5658C15.2431 14.5658 15.4198 14.607 15.5707 14.6894C15.7251 14.7717 15.8435 14.8798 15.9259 15.0136V14.607H16.8059V17.4737C16.8059 17.7379 16.7527 17.9763 16.6464 18.1891C16.5435 18.4052 16.3839 18.5768 16.1677 18.7037C15.955 18.8307 15.6891 18.8941 15.37 18.8941C14.9446 18.8941 14.5997 18.7929 14.3356 18.5905C14.0714 18.3915 13.9204 18.1204 13.8826 17.7773H14.7524C14.7799 17.8871 14.8451 17.9729 14.948 18.0347C15.0509 18.0998 15.1779 18.1324 15.3288 18.1324C15.5107 18.1324 15.6548 18.0793 15.7612 17.9729C15.871 17.87 15.9259 17.7036 15.9259 17.4737V17.0671C15.8401 17.2009 15.7217 17.3107 15.5707 17.3965C15.4198 17.4788 15.2431 17.52 15.0406 17.52C14.8039 17.52 14.5895 17.4599 14.3973 17.3399C14.2052 17.2163 14.0525 17.0431 13.9393 16.8201C13.8295 16.5936 13.7746 16.3328 13.7746 16.0378C13.7746 15.7427 13.8295 15.4836 13.9393 15.2606C14.0525 15.0376 14.2052 14.8661 14.3973 14.746C14.5895 14.6259 14.8039 14.5658 15.0406 14.5658ZM15.9259 16.0429C15.9259 15.8233 15.8641 15.6501 15.7406 15.5231C15.6205 15.3962 15.473 15.3327 15.298 15.3327C15.123 15.3327 14.9737 15.3962 14.8502 15.5231C14.7301 15.6466 14.6701 15.8182 14.6701 16.0378C14.6701 16.2574 14.7301 16.4323 14.8502 16.5627C14.9737 16.6897 15.123 16.7531 15.298 16.7531C15.473 16.7531 15.6205 16.6897 15.7406 16.5627C15.8641 16.4358 15.9259 16.2625 15.9259 16.0429Z" fill="white"/>
</svg>
