<svg width="22" height="21" viewBox="0 0 22 21" fill="none" xmlns="http://www.w3.org/2000/svg">
<path fill-rule="evenodd" clip-rule="evenodd" d="M4.48299 0.387171C2.07114 0.387171 0.115952 2.34236 0.115952 4.75421V16.5648C0.115952 18.9767 2.07114 20.9318 4.48299 20.9318H17.435C19.8468 20.9318 21.802 18.9767 21.802 16.5648V4.75421C21.802 2.34236 19.8468 0.387171 17.4349 0.387171H4.48299ZM4.47439 14.229C4.47439 16.0379 5.94079 17.5043 7.74967 17.5043H14.1682C15.9771 17.5043 17.4435 16.0379 17.4435 14.229V7.09C17.4435 5.28111 15.9771 3.81472 14.1682 3.81472H7.74967C5.94079 3.81472 4.47439 5.28111 4.47439 7.09V14.229Z" fill="#FF4B00"/>
</svg>
