<svg width="19" height="19" viewBox="0 0 19 19" fill="none" xmlns="http://www.w3.org/2000/svg">
<path d="M11.2865 15.204H3.64909C3.49999 15.204 3.357 15.1448 3.25158 15.0394C3.14615 14.9339 3.08693 14.791 3.08693 14.6419V3.39862C3.08693 3.24952 3.14615 3.10654 3.25158 3.00111C3.357 2.89568 3.49999 2.83646 3.64909 2.83646H14.8923C15.0414 2.83646 15.1844 2.89568 15.2898 3.00111C15.3953 3.10654 15.4545 3.24952 15.4545 3.39862V11.036C15.4545 11.1099 15.44 11.183 15.4117 11.2512C15.3834 11.3194 15.342 11.3813 15.2898 11.4335L11.684 15.0394C11.6318 15.0916 11.5698 15.133 11.5016 15.1612C11.4334 15.1895 11.3603 15.204 11.2865 15.204V15.204Z" stroke="#727272" stroke-width="1.34919" stroke-linecap="round" stroke-linejoin="round"/>
<path d="M15.404 11.2683H11.5194V15.1529" stroke="#727272" stroke-width="1.34919" stroke-linecap="round" stroke-linejoin="round"/>
</svg>
