<svg width="13" height="13" viewBox="0 0 13 13" fill="none" xmlns="http://www.w3.org/2000/svg">
<path d="M0.362969 11.1875C0.233978 11.0282 0.167586 10.8802 0.163792 10.7436C0.163792 10.6109 0.2207 10.5027 0.334516 10.4193C0.43695 10.3434 0.545075 10.3036 0.65889 10.2998C0.7765 10.296 0.903594 10.2865 1.04017 10.2713C1.17675 10.2561 1.32282 10.1897 1.47836 10.0721C1.61115 9.97349 1.7022 9.84829 1.75152 9.69654C1.80084 9.54099 1.84447 9.37406 1.88241 9.19575C1.92035 9.01365 1.98674 8.82964 2.08159 8.64375C2.17643 8.45405 2.33767 8.27384 2.5653 8.10312C2.84984 7.88308 3.16853 7.76357 3.52135 7.7446C3.87418 7.72184 4.22132 7.79202 4.56277 7.95516C4.90422 8.1145 5.19824 8.35921 5.44484 8.68927C5.72179 9.05348 5.88303 9.43476 5.92856 9.83312C5.97788 10.2277 5.91718 10.609 5.74645 10.977C5.57573 11.345 5.29688 11.6731 4.90991 11.9615C4.57225 12.2119 4.19476 12.3769 3.77744 12.4566C3.36012 12.54 2.9371 12.5438 2.5084 12.468C2.08348 12.3959 1.68323 12.2498 1.30764 12.0298C0.932048 11.8097 0.617158 11.529 0.362969 11.1875ZM5.75214 7.85842C5.53589 7.63837 5.29498 7.45437 5.02941 7.30641C4.76384 7.15845 4.50965 7.06171 4.26685 7.01618C4.30479 6.80372 4.37308 6.60265 4.47172 6.41296C4.57415 6.22326 4.71642 6.03547 4.89852 5.84957C4.92508 5.81922 4.95354 5.78887 4.98389 5.75852C5.01424 5.72817 5.04649 5.69782 5.08063 5.66746C5.43725 5.72817 5.77491 5.84388 6.09359 6.0146C6.41607 6.18153 6.7044 6.39399 6.95859 6.65197C7.21657 6.90995 7.43092 7.20018 7.60165 7.52266C7.77616 7.84134 7.88998 8.18089 7.94309 8.54131C7.91654 8.57166 7.88808 8.60201 7.85773 8.63236C7.82738 8.66271 7.79703 8.69117 7.76668 8.71773C7.58458 8.89604 7.40057 9.03641 7.21467 9.13884C7.02878 9.24128 6.82391 9.31146 6.60007 9.3494C6.55834 9.11039 6.46159 8.8581 6.30984 8.59253C6.16188 8.32316 5.97598 8.07846 5.75214 7.85842ZM11.1641 0.944114C11.3614 0.799947 11.5605 0.725967 11.7616 0.722173C11.9627 0.718379 12.1505 0.767699 12.325 0.870134C12.4995 0.972568 12.6361 1.10915 12.7347 1.27987C12.8372 1.45059 12.8884 1.64029 12.8884 1.84895C12.8884 2.05382 12.8182 2.25679 12.6778 2.45786C12.6399 2.50718 12.5545 2.62859 12.4217 2.82207C12.289 3.01177 12.1182 3.25457 11.9096 3.55049C11.7009 3.84641 11.4638 4.17458 11.1982 4.535C10.9364 4.89542 10.6576 5.26911 10.3617 5.65608C10.0696 6.03926 9.77173 6.42055 9.46822 6.79993C9.16851 7.17932 8.87259 7.53215 8.58046 7.85842C8.36042 7.18311 8.0019 6.59886 7.5049 6.10566C7.0117 5.61245 6.42935 5.25583 5.75783 5.03579C6.0879 4.74745 6.44073 4.45153 6.81632 4.14803C7.1957 3.84452 7.57888 3.5467 7.96586 3.25457C8.35662 2.95865 8.73222 2.6798 9.09263 2.41803C9.45305 2.15625 9.77932 1.92103 10.0714 1.71237C10.3636 1.50371 10.6064 1.33298 10.7999 1.2002C10.9934 1.06362 11.1148 0.978258 11.1641 0.944114Z" fill="black"/>
</svg>
