<svg width="15" height="13" viewBox="0 0 15 13" fill="none" xmlns="http://www.w3.org/2000/svg">
<path d="M4.80375 13.0015C4.5578 13.0015 4.36515 12.9216 4.22578 12.7617C4.09051 12.6018 4.02287 12.3846 4.02287 12.1099V10.5974H3.69085C3.09648 10.5974 2.58614 10.4826 2.15983 10.2531C1.73762 10.0235 1.41175 9.69558 1.1822 9.26927C0.956746 8.83887 0.844021 8.31828 0.844021 7.70752V2.93616C0.844021 2.3254 0.956746 1.80686 1.1822 1.38056C1.40765 0.95015 1.73353 0.620173 2.15983 0.390623C2.59024 0.161074 3.11492 0.0462988 3.73389 0.0462988H11.7333C12.3481 0.0462988 12.8708 0.161074 13.3012 0.390623C13.7316 0.620173 14.0595 0.95015 14.285 1.38056C14.5104 1.80686 14.6231 2.3254 14.6231 2.93616V7.70752C14.6231 8.31828 14.5104 8.83887 14.285 9.26927C14.0595 9.69558 13.7316 10.0235 13.3012 10.2531C12.8708 10.4826 12.3481 10.5974 11.7333 10.5974H7.93341L5.83058 12.4604C5.62152 12.6449 5.44116 12.7802 5.28949 12.8662C5.13783 12.9564 4.97591 13.0015 4.80375 13.0015ZM5.10503 11.6427L7.05416 9.71197C7.18533 9.5808 7.30625 9.49472 7.41693 9.45373C7.5317 9.40864 7.68337 9.3861 7.87193 9.3861H11.6964C12.2785 9.3861 12.7089 9.24263 12.9876 8.95569C13.2704 8.66465 13.4119 8.23425 13.4119 7.66447V2.97306C13.4119 2.40738 13.2704 1.98107 12.9876 1.69414C12.7089 1.4031 12.2785 1.25758 11.6964 1.25758H3.76463C3.18666 1.25758 2.75625 1.4031 2.47341 1.69414C2.19467 1.98107 2.0553 2.40738 2.0553 2.97306V7.66447C2.0553 8.23425 2.19467 8.66465 2.47341 8.95569C2.75625 9.24263 3.18666 9.3861 3.76463 9.3861H4.60699C4.77916 9.3861 4.90418 9.42504 4.98206 9.50292C5.06404 9.5767 5.10503 9.70583 5.10503 9.89029V11.6427ZM5.2526 7.7567C4.94107 7.7567 4.69717 7.67472 4.52091 7.51076C4.34875 7.3427 4.26267 7.10495 4.26267 6.79752V3.87691C4.26267 3.56947 4.35285 3.33173 4.53321 3.16366C4.71357 2.9915 4.95337 2.90542 5.2526 2.90542H8.39456C8.70609 2.90542 8.94384 2.9915 9.10781 3.16366C9.27587 3.33173 9.3599 3.56947 9.3599 3.87691V6.78522C9.3599 7.08855 9.27177 7.3263 9.09551 7.49846C8.92335 7.67062 8.6815 7.7567 8.36997 7.7567H5.2526ZM9.70422 6.20724V4.46103L10.8048 3.52029C10.8663 3.4752 10.9278 3.4383 10.9893 3.40961C11.0508 3.37682 11.1123 3.36042 11.1738 3.36042C11.2926 3.36042 11.389 3.39936 11.4627 3.47724C11.5365 3.55103 11.5734 3.65351 11.5734 3.78468V6.87745C11.5734 7.01272 11.5365 7.11929 11.4627 7.19718C11.389 7.27096 11.2926 7.30785 11.1738 7.30785C11.1123 7.30785 11.0508 7.29351 10.9893 7.26481C10.9278 7.23202 10.8663 7.19103 10.8048 7.14184L9.70422 6.20724Z" fill="#727272"/>
</svg>
