<svg width="21" height="28" viewBox="0 0 21 28" fill="none" xmlns="http://www.w3.org/2000/svg">
<path d="M3.75872 0.43927H12.8391C13.294 0.439367 13.7303 0.620175 14.052 0.941923L20.4115 7.30143C20.7332 7.62309 20.914 8.05937 20.9141 8.51432V24.4568C20.9141 25.3668 20.5526 26.2395 19.9092 26.883C19.2657 27.5264 18.393 27.8879 17.483 27.8879H3.75872C2.84874 27.8879 1.97603 27.5264 1.33258 26.883C0.689124 26.2395 0.327637 25.3668 0.327637 24.4568V3.87035C0.327637 2.96037 0.689124 2.08766 1.33258 1.44421C1.97603 0.800758 2.84874 0.43927 3.75872 0.43927V0.43927ZM13.1942 3.01258V6.44366C13.1942 6.89865 13.3749 7.33501 13.6967 7.65673C14.0184 7.97846 14.4547 8.1592 14.9097 8.1592H18.3408L13.1942 3.01258Z" fill="#F1351B"/>
<path d="M5.17577 18.3763C5.02137 18.3763 4.89442 18.3317 4.79492 18.2425C4.69885 18.1498 4.65081 18.0366 4.65081 17.9028C4.65081 17.7656 4.69885 17.6506 4.79492 17.558C4.89442 17.4653 5.02137 17.419 5.17577 17.419C5.32673 17.419 5.45025 17.4653 5.54632 17.558C5.64583 17.6506 5.69558 17.7656 5.69558 17.9028C5.69558 18.0366 5.64583 18.1498 5.54632 18.2425C5.45025 18.3317 5.32673 18.3763 5.17577 18.3763ZM9.22733 15.8853C9.22733 16.0946 9.17929 16.2868 9.08322 16.4617C8.98715 16.6333 8.83961 16.7723 8.64061 16.8786C8.44161 16.985 8.19457 17.0382 7.8995 17.0382H7.35395V18.3351H6.47388V14.7222H7.8995C8.18771 14.7222 8.43131 14.7719 8.63032 14.8714C8.82932 14.9709 8.97857 15.1082 9.07807 15.2832C9.17757 15.4582 9.22733 15.6589 9.22733 15.8853ZM7.83259 16.3382C8.00071 16.3382 8.12595 16.2988 8.20829 16.2199C8.29064 16.1409 8.33181 16.0294 8.33181 15.8853C8.33181 15.7412 8.29064 15.6297 8.20829 15.5508C8.12595 15.4719 8.00071 15.4324 7.83259 15.4324H7.35395V16.3382H7.83259ZM11.2964 14.7222C11.6772 14.7222 12.0101 14.7977 12.2948 14.9486C12.5796 15.0996 12.7992 15.3123 12.9536 15.5868C13.1114 15.8579 13.1903 16.1718 13.1903 16.5286C13.1903 16.8821 13.1114 17.196 12.9536 17.4705C12.7992 17.745 12.5779 17.9577 12.2897 18.1087C12.0049 18.2596 11.6738 18.3351 11.2964 18.3351H9.94283V14.7222H11.2964ZM11.2398 17.5734C11.5726 17.5734 11.8316 17.4825 12.0169 17.3006C12.2022 17.1188 12.2948 16.8615 12.2948 16.5286C12.2948 16.1958 12.2022 15.9368 12.0169 15.7515C11.8316 15.5662 11.5726 15.4736 11.2398 15.4736H10.8229V17.5734H11.2398ZM16.2915 14.7222V15.4273H14.8196V16.189H15.921V16.8735H14.8196V18.3351H13.9395V14.7222H16.2915Z" fill="white"/>
</svg>
