<svg width="15" height="12" viewBox="0 0 15 12" fill="none" xmlns="http://www.w3.org/2000/svg">
<path d="M2.72454 11.2552C2.08208 11.2552 1.59248 11.0888 1.25577 10.7559C0.922924 10.4269 0.756501 9.94508 0.756501 9.31035V2.23353C0.756501 1.60267 0.917118 1.12276 1.23835 0.793782C1.55959 0.464808 2.00467 0.30032 2.5736 0.30032H4.20493C4.41393 0.30032 4.59389 0.315801 4.74483 0.346764C4.89965 0.373856 5.03898 0.420299 5.16283 0.486094C5.29055 0.551889 5.42601 0.640906 5.56921 0.753144L5.8827 1.00858C6.05299 1.14404 6.21361 1.2408 6.36455 1.29886C6.51549 1.35304 6.69933 1.38013 6.91607 1.38013H12.1874C12.826 1.38013 13.3117 1.54655 13.6446 1.8794C13.9813 2.21224 14.1496 2.69603 14.1496 3.33076V9.31035C14.1496 9.94508 13.9871 10.4269 13.662 10.7559C13.3407 11.0888 12.8899 11.2552 12.3093 11.2552H2.72454ZM2.82904 9.96637H12.0771C12.3287 9.96637 12.5222 9.90251 12.6576 9.77479C12.7931 9.6432 12.8608 9.44388 12.8608 9.17683V3.47009C12.8608 3.19917 12.7931 2.99985 12.6576 2.87213C12.5222 2.74054 12.3287 2.67474 12.0771 2.67474H6.56774C6.35875 2.67474 6.17684 2.6612 6.02203 2.6341C5.87109 2.60314 5.72982 2.55476 5.59823 2.48897C5.47051 2.42317 5.33699 2.33416 5.19766 2.22192L4.88417 1.96648C4.71387 1.82715 4.55326 1.73039 4.40231 1.67621C4.25524 1.61815 4.07527 1.58913 3.86241 1.58913H2.82324C2.57554 1.58913 2.38396 1.65686 2.2485 1.79232C2.11304 1.92391 2.04531 2.11355 2.04531 2.36125V9.17683C2.04531 9.44388 2.1111 9.6432 2.24269 9.77479C2.37815 9.90251 2.5736 9.96637 2.82904 9.96637ZM1.57507 4.90984V3.81261H13.3485V4.90984H1.57507Z" fill="#727272"/>
</svg>
