<svg width="14" height="14" viewBox="0 0 14 14" fill="none" xmlns="http://www.w3.org/2000/svg">
<path d="M6.50078 13.7395C6.23434 13.7395 6.00274 13.6616 5.80598 13.5059C5.60922 13.3542 5.48215 13.1513 5.42476 12.8972L5.17882 11.8519L5.04355 11.8088L4.1397 12.3622C3.91015 12.5057 3.67035 12.559 3.4203 12.5221C3.17436 12.4893 2.95916 12.3786 2.7747 12.1901L1.90774 11.3292C1.71508 11.1366 1.60235 10.9173 1.56956 10.6713C1.54087 10.4213 1.59826 10.1856 1.74172 9.96425L2.30125 9.06655L2.25206 8.93743L1.21909 8.69148C0.964944 8.62999 0.759989 8.50087 0.604224 8.30411C0.452557 8.10736 0.376724 7.87576 0.376724 7.60932V6.40418C0.376724 6.13774 0.452557 5.90614 0.604224 5.70938C0.75589 5.51263 0.960845 5.38351 1.21909 5.32202L2.24591 5.06993L2.2951 4.93465L1.73557 4.03695C1.59621 3.8156 1.54087 3.58195 1.56956 3.33601C1.60235 3.09006 1.71508 2.86871 1.90774 2.67195L2.76855 1.80499C2.95711 1.62053 3.17436 1.51191 3.4203 1.47911C3.66625 1.44222 3.90195 1.49346 4.1274 1.63283L5.03125 2.19236L5.17882 2.13702L5.42476 1.09175C5.48215 0.841704 5.60922 0.638799 5.80598 0.483033C6.00274 0.327267 6.23434 0.249384 6.50078 0.249384H7.7551C8.02154 0.249384 8.25314 0.327267 8.4499 0.483033C8.64666 0.6347 8.77373 0.837605 8.83112 1.09175L9.07091 2.13702L9.21848 2.19236L10.1285 1.63283C10.3498 1.49346 10.5835 1.44222 10.8294 1.47911C11.0795 1.51191 11.2967 1.62053 11.4812 1.80499L12.3481 2.67195C12.5408 2.86871 12.6515 3.09006 12.6802 3.33601C12.713 3.58195 12.6597 3.8156 12.5203 4.03695L11.9546 4.93465L12.01 5.06993L13.0368 5.32202C13.2909 5.38351 13.4938 5.51263 13.6455 5.70938C13.8013 5.90614 13.8792 6.13774 13.8792 6.40418V7.60932C13.8792 7.87576 13.8013 8.10736 13.6455 8.30411C13.4938 8.50087 13.2909 8.62999 13.0368 8.69148L12.0038 8.93743L11.9485 9.06655L12.5142 9.96425C12.6535 10.1856 12.7068 10.4213 12.674 10.6713C12.6453 10.9173 12.5367 11.1366 12.3481 11.3292L11.4812 12.1901C11.2926 12.3786 11.0733 12.4893 10.8233 12.5221C10.5773 12.559 10.3437 12.5057 10.1223 12.3622L9.21233 11.8088L9.07091 11.8519L8.83112 12.8972C8.77373 13.1513 8.64666 13.3542 8.4499 13.5059C8.25314 13.6616 8.02154 13.7395 7.7551 13.7395H6.50078ZM6.69753 12.5098H7.55835C7.65672 12.5098 7.71206 12.4627 7.72436 12.3684L8.09328 10.862C8.30233 10.8169 8.49909 10.7554 8.68355 10.6775C8.86801 10.5996 9.04222 10.5094 9.20618 10.407L10.522 11.2124C10.5999 11.2657 10.6737 11.2575 10.7433 11.1878L11.3459 10.5853C11.4115 10.5238 11.4176 10.452 11.3644 10.3701L10.5527 9.05425C10.647 8.89848 10.7331 8.72632 10.811 8.53776C10.8889 8.34511 10.9524 8.1504 11.0016 7.95364L12.5142 7.59702C12.6043 7.58062 12.6494 7.52324 12.6494 7.42486V6.58249C12.6494 6.48821 12.6043 6.43288 12.5142 6.41648L11.0016 6.04756C10.9565 5.84261 10.893 5.64585 10.811 5.45729C10.729 5.26463 10.645 5.09452 10.5589 4.94695L11.3705 3.63114C11.4238 3.54916 11.4176 3.47538 11.3521 3.40979L10.7495 2.81337C10.6798 2.75188 10.604 2.74369 10.522 2.78878L9.20618 3.5881C9.04632 3.49382 8.87211 3.40569 8.68355 3.32371C8.49909 3.24173 8.30233 3.17819 8.09328 3.1331L7.72436 1.62053C7.71206 1.52625 7.65672 1.47911 7.55835 1.47911H6.69753C6.59916 1.47911 6.54177 1.52625 6.52537 1.62053L6.16875 3.1208C5.9638 3.16999 5.75884 3.23763 5.55389 3.32371C5.35303 3.40569 5.18087 3.49177 5.0374 3.58195L3.72774 2.78263C3.64576 2.73754 3.56992 2.74779 3.50024 2.81337L2.89152 3.40364C2.83003 3.46923 2.82594 3.54506 2.87922 3.63114L3.69085 4.94695C3.60476 5.09452 3.52073 5.26463 3.43875 5.45729C3.35677 5.64585 3.29323 5.84465 3.24814 6.05371L1.74172 6.41648C1.65154 6.43288 1.60645 6.48821 1.60645 6.58249V7.42486C1.60645 7.52324 1.65154 7.58062 1.74172 7.59702L3.25429 7.95364C3.29938 8.1545 3.36087 8.3492 3.43875 8.53776C3.51663 8.72222 3.60271 8.89438 3.69699 9.05425L2.87922 10.3701C2.83413 10.4561 2.84233 10.5299 2.90382 10.5914L3.50639 11.194C3.58017 11.2637 3.65395 11.2719 3.72774 11.2186L5.0497 10.407C5.20956 10.5094 5.38377 10.6017 5.57233 10.6836C5.76499 10.7615 5.96175 10.821 6.1626 10.862L6.52537 12.3684C6.54177 12.4627 6.59916 12.5098 6.69753 12.5098ZM7.12794 9.32479C6.70163 9.32479 6.31222 9.22026 5.9597 9.01121C5.60717 8.79806 5.32434 8.51522 5.11118 8.1627C4.90213 7.81017 4.7976 7.42076 4.7976 6.99445C4.7976 6.57225 4.90213 6.18488 5.11118 5.83236C5.32434 5.47984 5.60717 5.19905 5.9597 4.98999C6.31222 4.78094 6.70163 4.67641 7.12794 4.67641C7.55425 4.67641 7.94366 4.78094 8.29618 4.98999C8.64871 5.19905 8.92949 5.47984 9.13855 5.83236C9.3476 6.18488 9.45213 6.57225 9.45213 6.99445C9.45213 7.42076 9.3476 7.81017 9.13855 8.1627C8.92949 8.51522 8.64871 8.79806 8.29618 9.01121C7.94366 9.22026 7.55425 9.32479 7.12794 9.32479ZM7.12794 8.19344C7.34109 8.19344 7.5358 8.14015 7.71206 8.03357C7.89242 7.9229 8.03589 7.77738 8.14247 7.59702C8.25314 7.41256 8.30848 7.2117 8.30848 6.99445C8.30848 6.7772 8.25314 6.58044 8.14247 6.40418C8.03589 6.22382 7.89242 6.08035 7.71206 5.97378C7.5358 5.8631 7.34109 5.80776 7.12794 5.80776C6.91069 5.80776 6.71188 5.86105 6.53152 5.96763C6.35116 6.0742 6.20564 6.21767 6.09497 6.39803C5.98839 6.57839 5.9351 6.7772 5.9351 6.99445C5.9351 7.2158 5.98839 7.41666 6.09497 7.59702C6.20564 7.77738 6.35116 7.9229 6.53152 8.03357C6.71188 8.14015 6.91069 8.19344 7.12794 8.19344Z" fill="#727272"/>
</svg>
