<svg width="10" height="7" viewBox="0 0 10 7" fill="none" xmlns="http://www.w3.org/2000/svg">
<path d="M1.87823 6.56104C1.41397 6.56104 1.05247 6.43772 0.793737 6.19108C0.537424 5.94685 0.409267 5.59624 0.409267 5.13922V1.93651C0.409267 1.48192 0.54226 1.12888 0.808246 0.877407C1.07423 0.623511 1.43089 0.496564 1.87823 0.496564H5.6504C6.11466 0.496564 6.47495 0.623511 6.73127 0.877407C6.98758 1.12888 7.11574 1.48192 7.11574 1.93651V5.11746C7.11574 5.57447 6.98758 5.92872 6.73127 6.1802C6.47495 6.43409 6.11466 6.56104 5.6504 6.56104H1.87823ZM1.9943 5.91179H5.5307C5.81361 5.91179 6.03245 5.83683 6.1872 5.68691C6.34438 5.53699 6.42296 5.31332 6.42296 5.0159V2.0417C6.42296 1.74428 6.34559 1.52061 6.19083 1.37069C6.03608 1.21835 5.81603 1.14218 5.5307 1.14218H1.9943C1.71139 1.14218 1.49135 1.21714 1.33417 1.36706C1.17942 1.51698 1.10204 1.74186 1.10204 2.0417V5.0159C1.10204 5.31332 1.17942 5.53699 1.33417 5.68691C1.49135 5.83683 1.71139 5.91179 1.9943 5.91179ZM6.99604 2.49508L8.42511 1.28364C8.50974 1.21352 8.59438 1.15669 8.67901 1.11317C8.76606 1.06964 8.85311 1.04788 8.94016 1.04788C9.107 1.04788 9.2412 1.10229 9.34276 1.2111C9.44674 1.31991 9.49873 1.46378 9.49873 1.64272V5.42939C9.49873 5.60833 9.44674 5.75341 9.34276 5.86464C9.2412 5.97345 9.107 6.02786 8.94016 6.02786C8.85311 6.02786 8.76606 6.0061 8.67901 5.96257C8.59438 5.91905 8.50974 5.86101 8.42511 5.78847L6.99604 4.57703V3.80809L8.69714 5.20088C8.71407 5.21056 8.72858 5.22023 8.74067 5.2299C8.75276 5.23716 8.76606 5.24078 8.78057 5.24078C8.81925 5.24078 8.8386 5.21418 8.8386 5.16099V1.91475C8.8386 1.85914 8.81925 1.83133 8.78057 1.83133C8.76606 1.83133 8.75276 1.83616 8.74067 1.84584C8.72858 1.85309 8.71407 1.86276 8.69714 1.87485L6.99604 3.26765V2.49508Z" fill="white"/>
</svg>
